<svg xmlns="http://www.w3.org/2000/svg" width="20" height="20" fill="none" viewBox="0 0 20 20" id="discord">
  <path fill="#000" d="M15 0C17.7614 0 20 2.23858 20 5V15C20 17.7614 17.7614 20 15 20H5C2.23858 20 0 17.7614 0 15V5C0 2.23858 2.23858 0 5 0H15Z"></path>
  <path fill="#fff" d="M11.999 4C12.999 4.17869 13.9591 4.48797 14.8457 4.91406C14.859 4.91406 14.8664 4.92086 14.8731 4.92773C16.453 7.32646 17.2328 10.0281 16.9395 13.1416C16.9394 13.1553 16.9322 13.1689 16.9189 13.1758C15.719 14.0829 14.5656 14.6328 13.4189 14.9971C13.3991 15.0038 13.3793 14.9971 13.3594 14.9902C13.0994 14.6122 12.8589 14.2132 12.6455 13.7939C12.6391 13.7733 12.6464 13.7392 12.6729 13.7324C13.0527 13.5813 13.4191 13.4093 13.7656 13.1963C13.7989 13.1826 13.799 13.1417 13.7725 13.1211C13.6992 13.0593 13.626 13.0041 13.5527 12.9424C13.5394 12.9286 13.5192 12.9287 13.5059 12.9355C11.2393 14.0145 8.7659 14.0144 6.47266 12.9355C6.45933 12.9287 6.43912 12.9286 6.42578 12.9424C6.3525 12.9973 6.27934 13.0593 6.20606 13.1143C6.18615 13.1348 6.1856 13.1755 6.21192 13.1895C6.56525 13.3956 6.92567 13.5744 7.30567 13.7256C7.33228 13.7324 7.34524 13.7597 7.33203 13.7871C7.12537 14.2064 6.8858 14.6054 6.61914 14.9834C6.61248 14.9971 6.59227 15.0039 6.57227 14.9971C5.43231 14.6328 4.27906 14.083 3.07911 13.1758C3.06584 13.1689 3.05867 13.1553 3.0586 13.1416C2.81192 10.4473 3.3126 7.72514 5.12598 4.92773C5.13252 4.92099 5.13897 4.91415 5.14551 4.91406C6.03881 4.48795 6.99223 4.17871 7.99219 4C8.01215 4 8.03236 4.00682 8.03907 4.02051C8.16572 4.24729 8.30608 4.53586 8.39942 4.76953C9.46 4.60474 10.539 4.6047 11.5996 4.76953C11.6929 4.54279 11.8322 4.24719 11.9522 4.02051C11.9644 4.00759 11.9815 4.0003 11.999 4ZM7.67871 8.58398C6.97885 8.58419 6.41895 9.23795 6.41895 10.042C6.41915 10.8458 6.9923 11.4988 7.67871 11.499C8.37861 11.499 8.93926 10.846 8.93946 10.042C8.94612 9.2447 8.3854 8.58398 7.67871 8.58398ZM12.3262 8.58398C11.6262 8.58398 11.0654 9.23783 11.0654 10.042C11.0656 10.846 11.6396 11.499 12.3262 11.499C13.0326 11.4988 13.5857 10.8458 13.5859 10.042C13.5926 9.24482 13.0327 8.58419 12.3262 8.58398Z"></path>
</svg>
