<svg xmlns="http://www.w3.org/2000/svg" width="20" height="20" fill="none" viewBox="0 0 20 20" id="reddit">
  <path fill="#000" d="M15 0C17.7614 0 20 2.23858 20 5V15C20 17.7614 17.7614 20 15 20H5C2.23858 20 0 17.7614 0 15V5C0 2.23858 2.23858 0 5 0H15ZM14.9111 4C14.3727 4 13.9023 4.30601 13.6543 4.75879L11.4336 4.28711C11.3291 4.26494 11.2204 4.28073 11.126 4.33203C11.0314 4.38349 10.9567 4.46751 10.915 4.56934C10.6615 5.18629 10.2815 6.12204 9.96387 6.92285C9.8245 7.27531 9.69561 7.60381 9.5957 7.86816C8.4128 7.92697 7.31857 8.24491 6.41504 8.75195C6.24523 8.51264 6.02532 8.31595 5.77148 8.17773C5.51771 8.03956 5.23677 7.96337 4.9502 7.9541C4.66353 7.94487 4.37786 8.00339 4.11621 8.125C3.85478 8.24661 3.62318 8.42849 3.43945 8.65625C3.25576 8.88409 3.12459 9.15234 3.05566 9.44043C2.98675 9.72857 2.9822 10.029 3.04199 10.3193C3.10183 10.6098 3.2248 10.8822 3.40137 11.1162C3.57785 11.3501 3.80302 11.5395 4.06055 11.6699C4.00668 11.916 3.9799 12.1694 3.97949 12.4287C3.97959 13.7315 4.68957 14.882 5.78125 15.6943C6.87293 16.5073 8.36594 16.9999 10.001 17C11.6361 17 13.1293 16.5074 14.2217 15.6943C15.3132 14.882 16.0233 13.732 16.0234 12.4287C16.0234 12.1694 15.9957 11.9166 15.9414 11.6709C16.1986 11.5403 16.4244 11.3511 16.6006 11.1172C16.7767 10.8832 16.8994 10.6105 16.959 10.3203C17.0185 10.0303 17.0132 9.73012 16.9443 9.44238C16.8754 9.15446 16.7442 8.88588 16.5605 8.6582C16.3769 8.43061 16.1451 8.24947 15.8838 8.12793C15.6225 8.00646 15.338 7.94801 15.0518 7.95703C14.7656 7.96608 14.485 8.042 14.2314 8.17969C13.9779 8.31741 13.7578 8.51333 13.5879 8.75195C12.7305 8.26976 11.7003 7.96002 10.5869 7.87891L10.8193 7.28613C11.0778 6.63406 11.3788 5.89 11.6182 5.30371L13.4805 5.7002C13.5182 5.98462 13.6341 6.25169 13.8145 6.46973C13.995 6.6878 14.2323 6.84845 14.498 6.93066C14.7638 7.01282 15.0471 7.01341 15.3135 6.93359C15.5799 6.85369 15.8187 6.696 16.001 6.47949C16.1833 6.26291 16.3018 5.9962 16.3418 5.71191C16.3817 5.42776 16.3424 5.13732 16.2275 4.87598C16.1126 4.61461 15.9266 4.39365 15.6934 4.23828C15.46 4.08288 15.1886 3.99986 14.9111 4ZM12.2881 13.4404C12.3473 13.4544 12.4035 13.4803 12.4531 13.5166C12.5027 13.553 12.5457 13.5991 12.5781 13.6523C12.6104 13.7055 12.6323 13.7652 12.6426 13.8271C12.6527 13.889 12.6511 13.9525 12.6377 14.0137C12.6242 14.0751 12.5986 14.1332 12.5635 14.1846C12.5284 14.2358 12.484 14.28 12.4326 14.3135L12.2197 14.4521C11.5549 14.8862 10.785 15.1162 9.99902 15.1162C9.21288 15.1162 8.44227 14.8864 7.77734 14.4521L7.56445 14.3125C7.465 14.2428 7.39577 14.1354 7.37109 14.0137C7.34649 13.892 7.36859 13.7653 7.43262 13.6602C7.49676 13.5549 7.59803 13.4796 7.71484 13.4502C7.83162 13.4209 7.95503 13.4398 8.05859 13.5029L8.27148 13.6416C8.78859 13.9792 9.38768 14.1582 9.99902 14.1582C10.6104 14.1582 11.2095 13.9793 11.7266 13.6416L11.9395 13.502C11.9909 13.4685 12.0485 13.4462 12.1084 13.4355C12.1681 13.425 12.229 13.4266 12.2881 13.4404ZM7.81641 10.5801C8.05307 10.5801 8.27988 10.6774 8.44727 10.8506C8.61462 11.0239 8.70888 11.2589 8.70898 11.5039C8.70898 11.7491 8.6147 11.9848 8.44727 12.1582C8.27989 12.3314 8.05302 12.4287 7.81641 12.4287C7.57961 12.4287 7.35201 12.3316 7.18457 12.1582C7.01717 11.9848 6.92383 11.7491 6.92383 11.5039C6.92393 11.2589 7.01732 11.0238 7.18457 10.8506C7.35201 10.6772 7.57961 10.5801 7.81641 10.5801ZM12.1836 10.5801C12.4202 10.5801 12.6471 10.6775 12.8145 10.8506C12.9819 11.024 13.0762 11.2597 13.0762 11.5049C13.0761 11.75 12.9818 11.9849 12.8145 12.1582C12.6679 12.3099 12.4759 12.4039 12.2715 12.4248L12.1836 12.4287C11.947 12.4287 11.7201 12.3313 11.5527 12.1582C11.3854 11.9849 11.291 11.749 11.291 11.5039C11.2911 11.2589 11.3854 11.0238 11.5527 10.8506C11.7201 10.6774 11.947 10.5801 12.1836 10.5801ZM4.90332 8.91113C5.04354 8.91294 5.1821 8.94612 5.30859 9.00879C5.43508 9.07153 5.54644 9.16243 5.63574 9.27441C5.10676 9.69646 4.6785 10.2009 4.38867 10.7646C4.26891 10.689 4.16584 10.5876 4.08789 10.4668C4.00992 10.3459 3.95813 10.2081 3.93652 10.0645C3.91499 9.92098 3.92418 9.77432 3.96289 9.63477C4.00165 9.49512 4.06925 9.36567 4.16113 9.25586C4.253 9.14611 4.36721 9.05861 4.49512 8.99902C4.62317 8.93944 4.76294 8.90939 4.90332 8.91113ZM15.0996 8.91113C15.2398 8.90947 15.3789 8.9395 15.5068 8.99902C15.6348 9.05857 15.7489 9.14709 15.8408 9.25684C15.9325 9.36647 16.0003 9.49539 16.0391 9.63477C16.0779 9.77427 16.0868 9.92099 16.0654 10.0645C16.044 10.2078 15.9927 10.345 15.915 10.4658C15.8373 10.5866 15.7348 10.6888 15.6152 10.7646C15.3253 10.2007 14.8954 9.69657 14.3662 9.27441C14.4556 9.1625 14.5677 9.07139 14.6943 9.00879C14.8209 8.94622 14.9594 8.91282 15.0996 8.91113ZM14.9111 4.95801C15.049 4.95801 15.1818 5.01433 15.2793 5.11523C15.3766 5.21613 15.4307 5.35348 15.4307 5.49609C15.4306 5.63852 15.3765 5.77518 15.2793 5.87598C15.1818 5.97688 15.049 6.03418 14.9111 6.03418C14.7734 6.0341 14.6413 5.97681 14.5439 5.87598C14.4467 5.77516 14.3917 5.63861 14.3916 5.49609C14.3916 5.35339 14.4465 5.21614 14.5439 5.11523C14.6413 5.0144 14.7734 4.95809 14.9111 4.95801Z"></path>
</svg>
